<?xml version="1.0" encoding="utf-8"?>
<!-- Generator: Adobe Illustrator 26.5.0, SVG Export Plug-In . SVG Version: 6.00 Build 0)  -->
<svg version="1.1" id="Layer_2_00000112596659303824124660000008531183572305696155_"
	 xmlns="http://www.w3.org/2000/svg" xmlns:xlink="http://www.w3.org/1999/xlink" x="0px" y="0px" viewBox="0 0 965 746.6"
	 style="enable-background:new 0 0 965 746.6;" xml:space="preserve">
<style type="text/css">
	.st0{fill:#9FBEC9;}
</style>
<g id="Layer_2-2">
	<path class="st0" d="M591.7,0C409.4,0,257.6,130.7,224.9,303.6c-5.1,26.9-28.8,46.2-56.2,46.2h-1.1c-17.3,0-33.7-7.8-44.5-21.3
		c-2.4-3-4.2-4.9-4.9-5.5c-2.8-2.8-21.6-19.6-48.5-19.6C30.7,303.5-0.9,335.6,0,375c0.9,36.5,30.2,66.5,66.7,68.1
		c22.8,1,43.4-9,56.8-25.1c11-13.2,27.1-21.2,44.4-21.2h0.8c27.4,0,51.1,19.3,56.2,46.2c32.6,172.9,184.5,303.6,366.8,303.6
		c204.9,0,371.2-165,373.3-369.4C967.1,171,797.9,0,591.7,0z M596.6,653.1c-154.5,0-279.8-125.3-279.8-279.8S442,93.5,596.6,93.5
		s279.8,125.3,279.8,279.8S751.1,653.1,596.6,653.1L596.6,653.1z"/>
</g>
</svg>
