<?xml version="1.0" encoding="UTF-8"?>
<svg id="Layer_2" data-name="Layer 2" xmlns="http://www.w3.org/2000/svg" viewBox="0 0 965.03 746.61">
  <defs>
    <style>
      .cls-1 {
        fill: #231f20;
      }
    </style>
  </defs>
  <g id="Layer_2-2" data-name="Layer 2">
    <path class="cls-1" d="M591.74,0C409.39,0,257.57,130.74,224.92,303.61c-5.08,26.89-28.8,46.22-56.16,46.22h-1.06c-17.28,0-33.7-7.77-44.47-21.29-2.36-2.96-4.22-4.85-4.91-5.51-2.85-2.75-21.57-19.57-48.48-19.57C30.71,303.46-.91,335.65,.02,374.99c.86,36.5,30.23,66.5,66.71,68.09,22.84,.99,43.38-8.99,56.8-25.11,11.03-13.25,27.15-21.19,44.39-21.19h.84c27.36,0,51.08,19.33,56.16,46.22,32.64,172.86,184.46,303.61,366.81,303.61,204.88,0,371.21-165.05,373.28-369.44C967.1,171.02,797.89,0,591.74,0Zm4.86,653.15c-154.55,0-279.84-125.29-279.84-279.84S442.05,93.46,596.6,93.46s279.84,125.29,279.84,279.84-125.29,279.84-279.84,279.84Z"/>
  </g>
</svg>